@startuml
!pragma layout elk
hide empty methods
hide empty attributes
skinparam linetype ortho
skinparam roundCorner 0
skinparam classAttributeIconSize 0
skinparam ClassBackgroundColor #OldLace
skinparam NoteBackgroundColor #OldLace
skinparam Shadowing false
top to bottom direction

<style>
    classDiagram {
        .provided {
            BackgroundColor GhostWhite
            LineColor DimGrey
            FontColor DimGrey
        }
    }
</style>

hide <<provided>> stereotype

interface ChessController<<provided>> {}

interface UserChoice<<provided>> {}

' interface "DrawableResource<E>"<<provided>> {
' }

interface ChessView<<provided>> {}

' abstract class "BaseView<E>"<<provided>> implements ChessView {
' }

' class GUIView<<provided>> extends "BaseView<E>" {
' }

' class ConsoleView<<provided>> extends "BaseView<E>" {
' }

class ChessEngine implements ChessController {}

interface ChessBoardView {}

interface Cloneable<<provided>> {}

class ChessBoard implements ChessBoardView, Cloneable {}

abstract class ChessBoardInitialzer {}

class Position {}

enum PlayerColor<<provided>> {
    WHITE
    BLACK
}

enum PieceType<<provided>> {
    PAWN
    ROOK
    KNIGHT
    BISHOP
    QUEEN
    KING
}

abstract class ChessPiece implements Cloneable {}
abstract class PromotableChessPiece extends ChessPiece implements UserChoice {}
class Pawn extends ChessPiece {}
class Rook extends PromotableChessPiece {}
class Knight extends PromotableChessPiece {}
class Bishop extends PromotableChessPiece {}
class Queen extends PromotableChessPiece {}
class King extends ChessPiece {}


abstract class MoveGenerator implements Cloneable {}
class DirectionalGenerator extends MoveGenerator {}
class KnightGenerator extends MoveGenerator {}
class DistanceGenerator extends MoveGenerator {}
class PawnDistanceGenerator extends DistanceGenerator {}

enum Direction {
    FORWARDS
    BACKWARDS
    LEFT
    RIGHT
    FORWARDS_LEFT
    FORWARDS_RIGHT
    BACKWARDS_LEFT
    BACKWARDS_RIGHT
}


class Moves {}

abstract class ChessMove {}

class StandardMove extends ChessMove {}
class Capture extends ChessMove {}
class EnPassant extends StandardMove {}
abstract class Castling extends ChessMove {}
class LongCastling extends Castling {}
class ShortCastling extends Castling {}
class Promotion extends StandardMove {}
class PromotionWithCapture extends Capture {}

ChessController "1" --> "1" ChessView : manage >

ChessEngine "1" --> "1" ChessBoard : manages >
ChessEngine "1" --> "1" PlayerColor : hasTurn >
ChessEngine --> ChessBoardInitialzer : usesStatically >
ChessBoard "1" --> "1" ChessView : has >
ChessBoard "1" --> "2..32" ChessPiece : contains >
ChessBoard "1" --> "2" Position : tracks >
ChessPiece "1" --> "1" PieceType : represents >
ChessPiece "1" --> "1" PlayerColor : belongsTo >
ChessPiece "1" --> "1..*" MoveGenerator : generates >

DirectionalGenerator "*" --> "1..*" Direction : defines >
DistanceGenerator "1" --> "1..*" DirectionalGenerator : uses >

ChessMove "1" --> "1" Position : startsAt >
ChessMove "1" --> "1" Position : endsAt >
Moves "1" --> "*" ChessMove : includes >
EnPassant "1" --> "1" Position : captures >

@enduml
